<svg width="54" height="22" viewBox="0 0 54 22" fill="none" xmlns="http://www.w3.org/2000/svg">
<rect width="54" height="22" rx="6" fill="#F8AEA8"/>
<path d="M15.652 6.636V7.524H12.016V10.344H14.968V11.232H12.016V15H10.924V6.636H15.652ZM16.5629 11.688C16.5629 11.016 16.6989 10.428 16.9709 9.924C17.2429 9.412 17.6149 9.016 18.0869 8.736C18.5669 8.456 19.0989 8.316 19.6829 8.316C20.2589 8.316 20.7589 8.44 21.1829 8.688C21.6069 8.936 21.9229 9.248 22.1309 9.624V8.424H23.2349V15H22.1309V13.776C21.9149 14.16 21.5909 14.48 21.1589 14.736C20.7349 14.984 20.2389 15.108 19.6709 15.108C19.0869 15.108 18.5589 14.964 18.0869 14.676C17.6149 14.388 17.2429 13.984 16.9709 13.464C16.6989 12.944 16.5629 12.352 16.5629 11.688ZM22.1309 11.7C22.1309 11.204 22.0309 10.772 21.8309 10.404C21.6309 10.036 21.3589 9.756 21.0149 9.564C20.6789 9.364 20.3069 9.264 19.8989 9.264C19.4909 9.264 19.1189 9.36 18.7829 9.552C18.4469 9.744 18.1789 10.024 17.9789 10.392C17.7789 10.76 17.6789 11.192 17.6789 11.688C17.6789 12.192 17.7789 12.632 17.9789 13.008C18.1789 13.376 18.4469 13.66 18.7829 13.86C19.1189 14.052 19.4909 14.148 19.8989 14.148C20.3069 14.148 20.6789 14.052 21.0149 13.86C21.3589 13.66 21.6309 13.376 21.8309 13.008C22.0309 12.632 22.1309 12.196 22.1309 11.7ZM25.6443 7.356C25.4363 7.356 25.2603 7.284 25.1163 7.14C24.9723 6.996 24.9003 6.82 24.9003 6.612C24.9003 6.404 24.9723 6.228 25.1163 6.084C25.2603 5.94 25.4363 5.868 25.6443 5.868C25.8443 5.868 26.0123 5.94 26.1483 6.084C26.2923 6.228 26.3643 6.404 26.3643 6.612C26.3643 6.82 26.2923 6.996 26.1483 7.14C26.0123 7.284 25.8443 7.356 25.6443 7.356ZM26.1723 8.424V15H25.0803V8.424H26.1723ZM29.1254 6.12V15H28.0334V6.12H29.1254ZM36.9865 11.46C36.9865 11.668 36.9745 11.888 36.9505 12.12H31.6945C31.7345 12.768 31.9545 13.276 32.3545 13.644C32.7625 14.004 33.2545 14.184 33.8305 14.184C34.3025 14.184 34.6945 14.076 35.0065 13.86C35.3265 13.636 35.5505 13.34 35.6785 12.972H36.8545C36.6785 13.604 36.3265 14.12 35.7985 14.52C35.2705 14.912 34.6145 15.108 33.8305 15.108C33.2065 15.108 32.6465 14.968 32.1505 14.688C31.6625 14.408 31.2785 14.012 30.9985 13.5C30.7185 12.98 30.5785 12.38 30.5785 11.7C30.5785 11.02 30.7145 10.424 30.9865 9.912C31.2585 9.4 31.6385 9.008 32.1265 8.736C32.6225 8.456 33.1905 8.316 33.8305 8.316C34.4545 8.316 35.0065 8.452 35.4865 8.724C35.9665 8.996 36.3345 9.372 36.5905 9.852C36.8545 10.324 36.9865 10.86 36.9865 11.46ZM35.8585 11.232C35.8585 10.816 35.7665 10.46 35.5825 10.164C35.3985 9.86 35.1465 9.632 34.8265 9.48C34.5145 9.32 34.1665 9.24 33.7825 9.24C33.2305 9.24 32.7585 9.416 32.3665 9.768C31.9825 10.12 31.7625 10.608 31.7065 11.232H35.8585ZM38.0199 11.688C38.0199 11.016 38.1559 10.428 38.4279 9.924C38.6999 9.412 39.0719 9.016 39.5439 8.736C40.0239 8.456 40.5599 8.316 41.1519 8.316C41.6639 8.316 42.1399 8.436 42.5799 8.676C43.0199 8.908 43.3559 9.216 43.5879 9.6V6.12H44.6919V15H43.5879V13.764C43.3719 14.156 43.0519 14.48 42.6279 14.736C42.2039 14.984 41.7079 15.108 41.1399 15.108C40.5559 15.108 40.0239 14.964 39.5439 14.676C39.0719 14.388 38.6999 13.984 38.4279 13.464C38.1559 12.944 38.0199 12.352 38.0199 11.688ZM43.5879 11.7C43.5879 11.204 43.4879 10.772 43.2879 10.404C43.0879 10.036 42.8159 9.756 42.4719 9.564C42.1359 9.364 41.7639 9.264 41.3559 9.264C40.9479 9.264 40.5759 9.36 40.2399 9.552C39.9039 9.744 39.6359 10.024 39.4359 10.392C39.2359 10.76 39.1359 11.192 39.1359 11.688C39.1359 12.192 39.2359 12.632 39.4359 13.008C39.6359 13.376 39.9039 13.66 40.2399 13.86C40.5759 14.052 40.9479 14.148 41.3559 14.148C41.7639 14.148 42.1359 14.052 42.4719 13.86C42.8159 13.66 43.0879 13.376 43.2879 13.008C43.4879 12.632 43.5879 12.196 43.5879 11.7Z" fill="#221F20"/>
</svg>
