<svg width="54" height="22" viewBox="0 0 54 22" fill="none" xmlns="http://www.w3.org/2000/svg">
<rect width="54" height="22" rx="6" fill="#DDEBC0"/>
<path d="M12.516 9.084C12.516 9.78 12.276 10.36 11.796 10.824C11.324 11.28 10.6 11.508 9.624 11.508H8.016V15H6.924V6.636H9.624C10.568 6.636 11.284 6.864 11.772 7.32C12.268 7.776 12.516 8.364 12.516 9.084ZM9.624 10.608C10.232 10.608 10.68 10.476 10.968 10.212C11.256 9.948 11.4 9.572 11.4 9.084C11.4 8.052 10.808 7.536 9.624 7.536H8.016V10.608H9.624ZM13.4652 11.688C13.4652 11.016 13.6012 10.428 13.8732 9.924C14.1452 9.412 14.5172 9.016 14.9892 8.736C15.4692 8.456 16.0012 8.316 16.5852 8.316C17.1612 8.316 17.6612 8.44 18.0852 8.688C18.5092 8.936 18.8252 9.248 19.0332 9.624V8.424H20.1372V15H19.0332V13.776C18.8172 14.16 18.4932 14.48 18.0612 14.736C17.6372 14.984 17.1412 15.108 16.5732 15.108C15.9892 15.108 15.4612 14.964 14.9892 14.676C14.5172 14.388 14.1452 13.984 13.8732 13.464C13.6012 12.944 13.4652 12.352 13.4652 11.688ZM19.0332 11.7C19.0332 11.204 18.9332 10.772 18.7332 10.404C18.5332 10.036 18.2612 9.756 17.9172 9.564C17.5812 9.364 17.2092 9.264 16.8012 9.264C16.3932 9.264 16.0212 9.36 15.6852 9.552C15.3492 9.744 15.0812 10.024 14.8812 10.392C14.6812 10.76 14.5812 11.192 14.5812 11.688C14.5812 12.192 14.6812 12.632 14.8812 13.008C15.0812 13.376 15.3492 13.66 15.6852 13.86C16.0212 14.052 16.3932 14.148 16.8012 14.148C17.2092 14.148 17.5812 14.052 17.9172 13.86C18.2612 13.66 18.5332 13.376 18.7332 13.008C18.9332 12.632 19.0332 12.196 19.0332 11.7ZM24.3106 15.108C23.8066 15.108 23.3546 15.024 22.9546 14.856C22.5546 14.68 22.2386 14.44 22.0066 14.136C21.7746 13.824 21.6466 13.468 21.6226 13.068H22.7506C22.7826 13.396 22.9346 13.664 23.2066 13.872C23.4866 14.08 23.8506 14.184 24.2986 14.184C24.7146 14.184 25.0426 14.092 25.2826 13.908C25.5226 13.724 25.6426 13.492 25.6426 13.212C25.6426 12.924 25.5146 12.712 25.2586 12.576C25.0026 12.432 24.6066 12.292 24.0706 12.156C23.5826 12.028 23.1826 11.9 22.8706 11.772C22.5666 11.636 22.3026 11.44 22.0786 11.184C21.8626 10.92 21.7546 10.576 21.7546 10.152C21.7546 9.816 21.8546 9.508 22.0546 9.228C22.2546 8.948 22.5386 8.728 22.9066 8.568C23.2746 8.4 23.6946 8.316 24.1666 8.316C24.8946 8.316 25.4826 8.5 25.9306 8.868C26.3786 9.236 26.6186 9.74 26.6506 10.38H25.5586C25.5346 10.036 25.3946 9.76 25.1386 9.552C24.8906 9.344 24.5546 9.24 24.1306 9.24C23.7386 9.24 23.4266 9.324 23.1946 9.492C22.9626 9.66 22.8466 9.88 22.8466 10.152C22.8466 10.368 22.9146 10.548 23.0506 10.692C23.1946 10.828 23.3706 10.94 23.5786 11.028C23.7946 11.108 24.0906 11.2 24.4666 11.304C24.9386 11.432 25.3226 11.56 25.6186 11.688C25.9146 11.808 26.1666 11.992 26.3746 12.24C26.5906 12.488 26.7026 12.812 26.7106 13.212C26.7106 13.572 26.6106 13.896 26.4106 14.184C26.2106 14.472 25.9266 14.7 25.5586 14.868C25.1986 15.028 24.7826 15.108 24.3106 15.108ZM30.5801 15.108C30.0761 15.108 29.6241 15.024 29.2241 14.856C28.8241 14.68 28.5081 14.44 28.2761 14.136C28.0441 13.824 27.9161 13.468 27.8921 13.068H29.0201C29.0521 13.396 29.2041 13.664 29.4761 13.872C29.7561 14.08 30.1201 14.184 30.5681 14.184C30.9841 14.184 31.3121 14.092 31.5521 13.908C31.7921 13.724 31.9121 13.492 31.9121 13.212C31.9121 12.924 31.7841 12.712 31.5281 12.576C31.2721 12.432 30.8761 12.292 30.3401 12.156C29.8521 12.028 29.4521 11.9 29.1401 11.772C28.8361 11.636 28.5721 11.44 28.3481 11.184C28.1321 10.92 28.0241 10.576 28.0241 10.152C28.0241 9.816 28.1241 9.508 28.3241 9.228C28.5241 8.948 28.8081 8.728 29.1761 8.568C29.5441 8.4 29.9641 8.316 30.4361 8.316C31.1641 8.316 31.7521 8.5 32.2001 8.868C32.6481 9.236 32.8881 9.74 32.9201 10.38H31.8281C31.8041 10.036 31.6641 9.76 31.4081 9.552C31.1601 9.344 30.8241 9.24 30.4001 9.24C30.0081 9.24 29.6961 9.324 29.4641 9.492C29.2321 9.66 29.1161 9.88 29.1161 10.152C29.1161 10.368 29.1841 10.548 29.3201 10.692C29.4641 10.828 29.6401 10.94 29.8481 11.028C30.0641 11.108 30.3601 11.2 30.7361 11.304C31.2081 11.432 31.5921 11.56 31.8881 11.688C32.1841 11.808 32.4361 11.992 32.6441 12.24C32.8601 12.488 32.9721 12.812 32.9801 13.212C32.9801 13.572 32.8801 13.896 32.6801 14.184C32.4801 14.472 32.1961 14.7 31.8281 14.868C31.4681 15.028 31.0521 15.108 30.5801 15.108ZM40.5217 11.46C40.5217 11.668 40.5097 11.888 40.4857 12.12H35.2297C35.2697 12.768 35.4897 13.276 35.8897 13.644C36.2977 14.004 36.7897 14.184 37.3657 14.184C37.8377 14.184 38.2297 14.076 38.5417 13.86C38.8617 13.636 39.0857 13.34 39.2137 12.972H40.3897C40.2137 13.604 39.8617 14.12 39.3337 14.52C38.8057 14.912 38.1497 15.108 37.3657 15.108C36.7417 15.108 36.1817 14.968 35.6857 14.688C35.1977 14.408 34.8137 14.012 34.5337 13.5C34.2537 12.98 34.1137 12.38 34.1137 11.7C34.1137 11.02 34.2497 10.424 34.5217 9.912C34.7937 9.4 35.1737 9.008 35.6617 8.736C36.1577 8.456 36.7257 8.316 37.3657 8.316C37.9897 8.316 38.5417 8.452 39.0217 8.724C39.5017 8.996 39.8697 9.372 40.1257 9.852C40.3897 10.324 40.5217 10.86 40.5217 11.46ZM39.3937 11.232C39.3937 10.816 39.3017 10.46 39.1177 10.164C38.9337 9.86 38.6817 9.632 38.3617 9.48C38.0497 9.32 37.7017 9.24 37.3177 9.24C36.7657 9.24 36.2937 9.416 35.9017 9.768C35.5177 10.12 35.2977 10.608 35.2417 11.232H39.3937ZM41.5551 11.688C41.5551 11.016 41.6911 10.428 41.9631 9.924C42.2351 9.412 42.6071 9.016 43.0791 8.736C43.5591 8.456 44.0951 8.316 44.6871 8.316C45.1991 8.316 45.6751 8.436 46.1151 8.676C46.5551 8.908 46.8911 9.216 47.1231 9.6V6.12H48.2271V15H47.1231V13.764C46.9071 14.156 46.5871 14.48 46.1631 14.736C45.7391 14.984 45.2431 15.108 44.6751 15.108C44.0911 15.108 43.5591 14.964 43.0791 14.676C42.6071 14.388 42.2351 13.984 41.9631 13.464C41.6911 12.944 41.5551 12.352 41.5551 11.688ZM47.1231 11.7C47.1231 11.204 47.0231 10.772 46.8231 10.404C46.6231 10.036 46.3511 9.756 46.0071 9.564C45.6711 9.364 45.2991 9.264 44.8911 9.264C44.4831 9.264 44.1111 9.36 43.7751 9.552C43.4391 9.744 43.1711 10.024 42.9711 10.392C42.7711 10.76 42.6711 11.192 42.6711 11.688C42.6711 12.192 42.7711 12.632 42.9711 13.008C43.1711 13.376 43.4391 13.66 43.7751 13.86C44.1111 14.052 44.4831 14.148 44.8911 14.148C45.2991 14.148 45.6711 14.052 46.0071 13.86C46.3511 13.66 46.6231 13.376 46.8231 13.008C47.0231 12.632 47.1231 12.196 47.1231 11.7Z" fill="#221F20"/>
</svg>
